<svg width="166" height="34" viewBox="0 0 166 34" fill="none" xmlns="http://www.w3.org/2000/svg">
<path d="M7.81536 17.7185C-0.185292 16.1183 0.481442 5.66711 1.81489 1L21.0016 1.71711C35.0028 3.7173 37.3478 15.1954 35.8177 21.7188C33.0026 33.72 23.3341 33.72 21.0016 33.72C7.00048 33.72 2.4816 23.719 1.81488 17.7185H7.81536Z" fill="#715EE4" stroke="#3D21EA" stroke-width="0.1"/>
<path d="M35.1008 11.7927L39.864 18.5066L35.1008 18.5066L35.1008 11.7927Z" fill="#715EE4"/>
<path d="M51.852 14.756C52.356 14.0093 53.0467 13.4027 53.924 12.936C54.82 12.4693 55.8373 12.236 56.976 12.236C58.3013 12.236 59.496 12.5627 60.56 13.216C61.6427 13.8693 62.492 14.8027 63.108 16.016C63.7427 17.2107 64.06 18.6013 64.06 20.188C64.06 21.7747 63.7427 23.184 63.108 24.416C62.492 25.6293 61.6427 26.572 60.56 27.244C59.496 27.916 58.3013 28.252 56.976 28.252C55.8187 28.252 54.8013 28.028 53.924 27.58C53.0653 27.1133 52.3747 26.516 51.852 25.788V28H47.932V7.28H51.852V14.756ZM60.056 20.188C60.056 19.2547 59.86 18.452 59.468 17.78C59.0947 17.0893 58.5907 16.5667 57.956 16.212C57.34 15.8573 56.668 15.68 55.94 15.68C55.2307 15.68 54.5587 15.8667 53.924 16.24C53.308 16.5947 52.804 17.1173 52.412 17.808C52.0387 18.4987 51.852 19.3107 51.852 20.244C51.852 21.1773 52.0387 21.9893 52.412 22.68C52.804 23.3707 53.308 23.9027 53.924 24.276C54.5587 24.6307 55.2307 24.808 55.94 24.808C56.668 24.808 57.34 24.6213 57.956 24.248C58.5907 23.8747 59.0947 23.3427 59.468 22.652C59.86 21.9613 60.056 21.14 60.056 20.188ZM70.8286 7.28V28H66.9086V7.28H70.8286ZM89.3455 12.488V28H85.3975V26.04C84.8935 26.712 84.2309 27.244 83.4095 27.636C82.6069 28.0093 81.7295 28.196 80.7775 28.196C79.5642 28.196 78.4909 27.944 77.5575 27.44C76.6242 26.9173 75.8869 26.1613 75.3455 25.172C74.8229 24.164 74.5615 22.9693 74.5615 21.588V12.488H78.4815V21.028C78.4815 22.26 78.7895 23.212 79.4055 23.884C80.0215 24.5373 80.8615 24.864 81.9255 24.864C83.0082 24.864 83.8575 24.5373 84.4735 23.884C85.0895 23.212 85.3975 22.26 85.3975 21.028V12.488H89.3455ZM107.633 19.908C107.633 20.468 107.596 20.972 107.521 21.42H96.1813C96.2746 22.54 96.6666 23.4173 97.3573 24.052C98.0479 24.6867 98.8973 25.004 99.9053 25.004C101.361 25.004 102.397 24.3787 103.013 23.128H107.241C106.793 24.6213 105.935 25.8533 104.665 26.824C103.396 27.776 101.837 28.252 99.9893 28.252C98.4959 28.252 97.1519 27.9253 95.9573 27.272C94.7813 26.6 93.8573 25.6573 93.1853 24.444C92.5319 23.2307 92.2052 21.8307 92.2052 20.244C92.2052 18.6387 92.5319 17.2293 93.1853 16.016C93.8386 14.8027 94.7533 13.8693 95.9293 13.216C97.1053 12.5627 98.4586 12.236 99.9893 12.236C101.464 12.236 102.78 12.5533 103.937 13.188C105.113 13.8227 106.019 14.728 106.653 15.904C107.307 17.0613 107.633 18.396 107.633 19.908ZM103.573 18.788C103.555 17.78 103.191 16.9773 102.481 16.38C101.772 15.764 100.904 15.456 99.8773 15.456C98.9066 15.456 98.0853 15.7547 97.4133 16.352C96.7599 16.9307 96.3586 17.7427 96.2093 18.788H103.573ZM114.415 14.756C114.919 14.0093 115.609 13.4027 116.487 12.936C117.383 12.4693 118.4 12.236 119.539 12.236C120.864 12.236 122.059 12.5627 123.123 13.216C124.205 13.8693 125.055 14.8027 125.671 16.016C126.305 17.2107 126.623 18.6013 126.623 20.188C126.623 21.7747 126.305 23.184 125.671 24.416C125.055 25.6293 124.205 26.572 123.123 27.244C122.059 27.916 120.864 28.252 119.539 28.252C118.381 28.252 117.364 28.028 116.487 27.58C115.628 27.1133 114.937 26.516 114.415 25.788V28H110.495V7.28H114.415V14.756ZM122.619 20.188C122.619 19.2547 122.423 18.452 122.031 17.78C121.657 17.0893 121.153 16.5667 120.519 16.212C119.903 15.8573 119.231 15.68 118.503 15.68C117.793 15.68 117.121 15.8667 116.487 16.24C115.871 16.5947 115.367 17.1173 114.975 17.808C114.601 18.4987 114.415 19.3107 114.415 20.244C114.415 21.1773 114.601 21.9893 114.975 22.68C115.367 23.3707 115.871 23.9027 116.487 24.276C117.121 24.6307 117.793 24.808 118.503 24.808C119.231 24.808 119.903 24.6213 120.519 24.248C121.153 23.8747 121.657 23.3427 122.031 22.652C122.423 21.9613 122.619 21.14 122.619 20.188ZM131.459 10.64C130.768 10.64 130.19 10.4253 129.723 9.996C129.275 9.548 129.051 8.99733 129.051 8.344C129.051 7.69067 129.275 7.14933 129.723 6.72C130.19 6.272 130.768 6.048 131.459 6.048C132.15 6.048 132.719 6.272 133.167 6.72C133.634 7.14933 133.867 7.69067 133.867 8.344C133.867 8.99733 133.634 9.548 133.167 9.996C132.719 10.4253 132.15 10.64 131.459 10.64ZM133.391 12.488V28H129.471V12.488H133.391ZM141.184 14.896C141.688 14.0747 142.341 13.4307 143.144 12.964C143.965 12.4973 144.899 12.264 145.944 12.264V16.38H144.908C143.676 16.38 142.743 16.6693 142.108 17.248C141.492 17.8267 141.184 18.8347 141.184 20.272V28H137.264V12.488H141.184V14.896ZM147.576 20.188C147.576 18.62 147.884 17.2293 148.5 16.016C149.135 14.8027 149.994 13.8693 151.076 13.216C152.159 12.5627 153.363 12.236 154.688 12.236C155.696 12.236 156.658 12.46 157.572 12.908C158.487 13.3373 159.215 13.916 159.756 14.644V7.28H163.732V28H159.756V25.704C159.271 26.4693 158.59 27.0853 157.712 27.552C156.835 28.0187 155.818 28.252 154.66 28.252C153.354 28.252 152.159 27.916 151.076 27.244C149.994 26.572 149.135 25.6293 148.5 24.416C147.884 23.184 147.576 21.7747 147.576 20.188ZM159.784 20.244C159.784 19.292 159.598 18.48 159.224 17.808C158.851 17.1173 158.347 16.5947 157.712 16.24C157.078 15.8667 156.396 15.68 155.668 15.68C154.94 15.68 154.268 15.8573 153.652 16.212C153.036 16.5667 152.532 17.0893 152.14 17.78C151.767 18.452 151.58 19.2547 151.58 20.188C151.58 21.1213 151.767 21.9427 152.14 22.652C152.532 23.3427 153.036 23.8747 153.652 24.248C154.287 24.6213 154.959 24.808 155.668 24.808C156.396 24.808 157.078 24.6307 157.712 24.276C158.347 23.9027 158.851 23.38 159.224 22.708C159.598 22.0173 159.784 21.196 159.784 20.244Z" fill="#715EE4"/>
</svg>
